<svg xmlns="http://www.w3.org/2000/svg" viewBox="0 0 35 35"><defs><style>.cls-1{fill:#fff;}.cls-2{fill:none;}</style></defs><g id="Layer_2" data-name="Layer 2"><g id="Layer_1-2" data-name="Layer 1"><path class="cls-1" d="M22.47,28.77c-1.11,3-2.61,4.25-5,4.23s-3.89-1.32-4.91-4.23h-.67c-1.92,0-3.84,0-5.76,0A2.58,2.58,0,0,1,4.55,24a5.82,5.82,0,0,0,1-.77,3.45,3.45,0,0,0,.84-1.43c.57-3.05,1-6.13,1.58-9.17a9.35,9.35,0,0,1,6.12-7.22.87.87,0,0,0,.64-.9,2.79,2.79,0,0,1,5.56,0,.89.89,0,0,0,.69.93,9.56,9.56,0,0,1,6.18,7.71c.5,2.86,1,5.73,1.43,8.59a2.35,2.35,0,0,0,1,1.63c.38.27.75.54,1.11.84a2.57,2.57,0,0,1,.77,2.82,2.54,2.54,0,0,1-2.36,1.71c-1.1,0-2.2,0-3.31,0Zm-5-1.39h11a4.85,4.85,0,0,0,.66,0,1.16,1.16,0,0,0,1-.82,1.11,1.11,0,0,0-.38-1.25c-.32-.27-.66-.52-1-.76a3.87,3.87,0,0,1-1.61-2.69c-.47-2.95-.95-5.9-1.46-8.85A8.34,8.34,0,0,0,9.31,13c-.5,3-1,6-1.47,8.92a3.72,3.72,0,0,1-1.47,2.49,5.33,5.33,0,0,0-1.13.9A1.57,1.57,0,0,0,4.9,26.5c.1.34.56.61.91.83a1.5,1.5,0,0,0,.71.05Zm3.4,1.43H14.12a3.45,3.45,0,0,0,6.77,0Zm-2-24A1.36,1.36,0,0,0,17.41,3.4a1.27,1.27,0,0,0-1.22,1.44Z"/><rect class="cls-2" width="35" height="35"/></g></g></svg>