<svg xmlns="http://www.w3.org/2000/svg" viewBox="0 0 35 35"><defs><style>.cls-1{fill:#fff;}.cls-2{fill:none;}</style></defs><g id="Layer_2" data-name="Layer 2"><g id="Layer_1-2" data-name="Layer 1"><path class="cls-1" d="M20.53,16a5.3,5.3,0,0,1,.38-6.4l1,.83a4.1,4.1,0,0,0-.65,3.85,3.42,3.42,0,0,0,1.83,2.14,2.21,2.21,0,0,1,1.37,2.2c0,1,0,1,1,1.42.54.22,1.08.45,1.64.65a1,1,0,0,0,1.49-1c0-3.32,0-6.64,0-10A4,4,0,0,0,28,8.08a1.69,1.69,0,0,0-1.65-1h-1l1.34-2.72A26.68,26.68,0,0,0,15,7.63,22.21,22.21,0,0,0,6.2,16.06l-.63-.32c-.18-.1-.35-.21-.52-.32C8.94,8.07,18.5,2.61,29,3L27.58,5.84a11.75,11.75,0,0,1,1.21,1,4,4,0,0,1,1.14,2.85c0,3.38,0,6.77,0,10.15a2.37,2.37,0,0,1-3.21,2.24c-.81-.28-1.61-.6-2.4-.95a1.69,1.69,0,0,1-1.19-1.69,1.93,1.93,0,0,0-1.59-2.2A6.56,6.56,0,0,0,19,22.67a11.29,11.29,0,0,1-.61,4.89A8.25,8.25,0,0,1,14,32l-.6-1.18a1.64,1.64,0,0,1,.24-.16A6.85,6.85,0,0,0,17.58,24c0-1.71-.09-3.44.81-5C19,18,19.78,17.05,20.53,16Z"/><rect class="cls-2" width="35" height="35"/></g></g></svg>