<svg xmlns="http://www.w3.org/2000/svg" viewBox="0 0 23 23"><defs><style>.cls-1{fill:#fff;}.cls-2{fill:none;}</style></defs><g id="Layer_2" data-name="Layer 2"><g id="Layer_1-2" data-name="Layer 1"><path class="cls-1" d="M15.31,1.69a4.22,4.22,0,0,0-2.84,1.52,4.38,4.38,0,0,0-1,3.09,3.53,3.53,0,0,0,2.86-1.41A4.62,4.62,0,0,0,15.31,1.69Z"/><path class="cls-1" d="M15.18,6.88c-1.59,0-2.72.87-3.46.87s-1.88-.86-3.18-.86a4.73,4.73,0,0,0-4,2.45c-1.68,2.9-.43,7.2,1.19,9.56.8,1.17,1.76,2.41,3.06,2.41s1.59-.72,3-.72,1.88.72,3.17.72,2.09-1.19,2.89-2.36a10.48,10.48,0,0,0,1.3-2.69,4.25,4.25,0,0,1-2.54-3.86,4.33,4.33,0,0,1,2.06-3.62,4.45,4.45,0,0,0-3.42-1.9Z"/><rect class="cls-2" width="23" height="23"/></g></g></svg>