<svg xmlns="http://www.w3.org/2000/svg" viewBox="0 0 20 20"><defs><style>.cls-1{fill:none;}</style></defs><g id="Layer_2" data-name="Layer 2"><g id="Layer_1-2" data-name="Layer 1"><path d="M13.1,2.92a3.6,3.6,0,0,1,.71.57.71.71,0,0,1-.05.89,2.21,2.21,0,0,1-.29.32L8.87,9.3a.91.91,0,0,0,0,1.52l4.59,4.6a2.27,2.27,0,0,1,.3.32.85.85,0,0,1-.07,1.09.86.86,0,0,1-1.09.09,1.8,1.8,0,0,1-.29-.26L6.48,10.83a.91.91,0,0,1,0-1.53c2-2,3.9-3.91,5.86-5.85A6.31,6.31,0,0,1,13.1,2.92Z"/><rect class="cls-1" width="20" height="20"/></g></g></svg>