<svg xmlns="http://www.w3.org/2000/svg" viewBox="0 0 45.97 36.94"><defs><style>.cls-1,.cls-10{fill:#fff;}.cls-1{stroke:#fff;stroke-linecap:round;stroke-linejoin:round;stroke-width:2px;}.cls-2{fill:#ffc80d;}.cls-3{fill:#f98200;}.cls-4{fill:#fc9e15;}.cls-5{fill:#ffd869;}.cls-6{fill:#d8202c;}.cls-7{fill:#f7931e;}.cls-8{fill:#c91109;}.cls-9{fill:#ff4c3a;}</style></defs><g id="Layer_2" data-name="Layer 2"><g id="Layer_1-2" data-name="Layer 1"><path class="cls-1" d="M43,15.48c0-.07,0-.13,0-.18v-.16l0-.57c0-.33,0-.75,0-1.19a.47.47,0,0,0,.06.09.75.75,0,0,0,.73.06,2.14,2.14,0,0,0,.69-.37,1.3,1.3,0,0,0,.3-.33.87.87,0,0,0,.11-.38,2.31,2.31,0,0,0-.11-.87,1.78,1.78,0,0,0-1.25.22,2,2,0,0,0-.54.8h0c0-.2,0-.4,0-.56s0-.32,0-.42,0-.15,0-.15,0-.06,0-.16a1.41,1.41,0,0,0,0-.18,2.08,2.08,0,0,0,0-.23c0-.17-.05-.37-.08-.59s-.07-.39-.1-.59a.16.16,0,0,0,.07.07.7.7,0,0,0,.72-.07,2.1,2.1,0,0,0,.61-.5,1,1,0,0,0,.27-.78A1.51,1.51,0,0,0,44.32,8l-.2-.44a1.72,1.72,0,0,0-1.18.48,1.17,1.17,0,0,0-.22.37,2.27,2.27,0,0,0-.14.51V9c0-.2-.08-.39-.13-.55l-.17-.55,0-.15c0-.1-.08-.24-.14-.4L42,7.07c0-.09-.07-.19-.11-.29l-.23-.56.09.06a.76.76,0,0,0,.69-.23,2.2,2.2,0,0,0,.48-.63A1,1,0,0,0,43,4.59a1.46,1.46,0,0,0-.07-.19l-.12-.19a4.34,4.34,0,0,0-.29-.39,1.8,1.8,0,0,0-1,.74,1.1,1.1,0,0,0-.12.42,2.06,2.06,0,0,0,0,.26,2.43,2.43,0,0,0,0,.27h0a2.1,2.1,0,0,0-.13-.26L41.07,5l-.21-.37A2.07,2.07,0,0,0,40.76,3,2,2,0,0,0,39,2.18c-.54.15-.27,1.36,0,1.79a1.79,1.79,0,0,0,1.54.87,3.81,3.81,0,0,0,.2.36c0,.08.08.16.13.24l.13.27.28.6c0,.11.1.22.14.33s0,0,0,0a2,2,0,0,0-.72-.26c-.65-.1-.93.25-1.3.7a1.88,1.88,0,0,0,.37.45,2.07,2.07,0,0,0,.24.17.91.91,0,0,0,.26.13,1.68,1.68,0,0,0,1.49-.38v0c.06.16.11.29.14.39l0,.14s.06.22.16.54c0,.16.09.36.14.56s.1.42.14.65l.06.35,0,0a2.36,2.36,0,0,0-.64-.41,1,1,0,0,0-.77,0,2.55,2.55,0,0,0-.66.43,1.58,1.58,0,0,0,.27.51A1.26,1.26,0,0,0,41,11a1.65,1.65,0,0,0,1.54-.05v0c0,.08,0,.16,0,.22s0,.13,0,.18l0,.15v.16c0,.1,0,.24,0,.4,0,.34,0,.79,0,1.24,0,.12,0,.24,0,.36s0,0,0,0a2.46,2.46,0,0,0-.56-.53c-.55-.36-1-.15-1.48.13a2.13,2.13,0,0,0,.16.57,1.37,1.37,0,0,0,.35.49,2,2,0,0,0,.87.33,1,1,0,0,0,.65-.11v0c0,.33,0,.56,0,.56v.33l0,.23q0,.26-.06.57c0,.21-.07.43-.1.66l-.06.35,0,0a2.21,2.21,0,0,0-.46-.61c-.49-.45-.92-.31-1.49-.12,0,.1,0,.19,0,.3s0,.2,0,.3a1.42,1.42,0,0,0,.27.55,1.92,1.92,0,0,0,.81.45,1,1,0,0,0,.66,0v0l-.12.55,0,.15c0,.09-.06.23-.11.39s-.11.35-.18.55-.14.41-.22.62l-.14.33v-.05A2.61,2.61,0,0,0,41,20a1,1,0,0,0-.64-.43,2.63,2.63,0,0,0-.79,0,2.2,2.2,0,0,0-.05.59,1.33,1.33,0,0,0,.14.57,1.9,1.9,0,0,0,.7.63,1,1,0,0,0,.64.15v0l-.25.5-.07.14c0,.09-.11.21-.19.36s-.38.69-.62,1.07a3,3,0,0,1-.2.29v0a2.11,2.11,0,0,0-.18-.74c-.27-.6-.73-.64-1.31-.7A1.59,1.59,0,0,0,38,23a1.25,1.25,0,0,0,0,.58c.11.36.67,1,1.15,1l0,0-.25.33-.1.12-.09.12c-.07.07-.15.18-.26.31s-.24.28-.39.43-.29.32-.45.48-.17.17-.25.25a.06.06,0,0,1,0,0,2.29,2.29,0,0,0,0-.76,1,1,0,0,0-.41-.66,3.08,3.08,0,0,0-.73-.3,1.92,1.92,0,0,0-.28.51,1.37,1.37,0,0,0-.09.59,1.93,1.93,0,0,0,.66,1.12,20.57,20.57,0,0,0-8.31-2.58V24h-.63v-.74c-3.5-.46-4.13-3.71-4.24-5,1.35-.21,1.3-1.62,1.21-2.25a6.37,6.37,0,0,0,4.39-2.82,1.2,1.2,0,0,0,.43.59,1.36,1.36,0,0,0,.83.28,1,1,0,0,0,.48-.11.66.66,0,0,0,.35-.63.68.68,0,0,0-.45-.68.46.46,0,0,0-.49.17.47.47,0,0,0,.05.57.28.28,0,0,0,.1.09.83.83,0,0,1-.52-.16.58.58,0,0,1-.23-.64c.08-.45.34-.54.88-.69l.39-.11c3.43-1.15,5.44-3.55,5.5-6.61,0-1.25-.63-4-2.5-4A1.09,1.09,0,0,0,33,1.5a1.7,1.7,0,0,0-.31,1.27c0,.78,0,1.26-.79,1.4h0a.85.85,0,0,1-.77-.13.77.77,0,0,1-.21-.72c0-.22.1-.58.37-.56a.36.36,0,0,1,.29.19s0,0,0,0a.29.29,0,1,0,.38.44.59.59,0,0,0,.16-.74,1,1,0,0,0-1-.5.9.9,0,0,0-.59.43c-.12-1-.25-1.62-.25-1.62H15.73s-.13.63-.25,1.62a.9.9,0,0,0-.59-.43,1,1,0,0,0-1,.5.59.59,0,0,0,.16.74A.29.29,0,0,0,14.46,3l0,0a.36.36,0,0,1,.29-.19c.26,0,.35.34.38.56a.8.8,0,0,1-.22.72.85.85,0,0,1-.77.13h0c-.75-.14-.79-.62-.79-1.4A1.65,1.65,0,0,0,13,1.5a1.09,1.09,0,0,0-.79-.28c-1.87,0-2.5,2.73-2.5,4,.07,3.06,2.07,5.46,5.5,6.61l.39.11c.54.15.8.24.89.7a.59.59,0,0,1-.24.63.83.83,0,0,1-.52.16.28.28,0,0,0,.1-.09.47.47,0,0,0,.05-.57.45.45,0,0,0-.49-.17.68.68,0,0,0-.44.68.65.65,0,0,0,.34.63,1,1,0,0,0,.48.11,1.36,1.36,0,0,0,.83-.28,1.09,1.09,0,0,0,.43-.59A6.37,6.37,0,0,0,21.42,16c-.09.63-.14,2,1.2,2.25-.11,1.32-.73,4.57-4.24,5V24h-.63v.53A21.4,21.4,0,0,0,9.62,27a2,2,0,0,0,.49-1,1.33,1.33,0,0,0-.09-.58,1.92,1.92,0,0,0-.28-.51,3.08,3.08,0,0,0-.73.3,1,1,0,0,0-.41.65,2.37,2.37,0,0,0,0,.77s0,0,0,0-.17-.16-.25-.25-.31-.32-.45-.48-.27-.31-.38-.43a3.7,3.7,0,0,1-.26-.32L7.14,25,7,24.92c-.06-.07-.14-.19-.25-.32l0,0c.48,0,1-.68,1.15-1A1.45,1.45,0,0,0,8,23a1.77,1.77,0,0,0-.17-.55c-.58.06-1,.09-1.31.7a2.06,2.06,0,0,0-.18.74v0l-.2-.29c-.24-.39-.47-.77-.62-1.07-.08-.15-.15-.27-.19-.36L5.21,22,5,21.51v0a.92.92,0,0,0,.64-.14,2,2,0,0,0,.7-.63,1.33,1.33,0,0,0,.14-.57,2.2,2.2,0,0,0,0-.59,2.63,2.63,0,0,0-.79,0A1,1,0,0,0,5,20a2.34,2.34,0,0,0-.32.69.09.09,0,0,0,0,.05l-.14-.34c-.08-.2-.15-.42-.22-.62s-.13-.38-.18-.54S4,18.91,4,18.82s0-.15,0-.15-.06-.22-.13-.55v0a1,1,0,0,0,.66,0,1.92,1.92,0,0,0,.81-.46,1.37,1.37,0,0,0,.27-.54c0-.1,0-.21,0-.31a1.46,1.46,0,0,0,0-.29c-.57-.19-1-.33-1.48.12a2,2,0,0,0-.47.61l0,0-.06-.36c0-.22-.07-.44-.09-.65s0-.41-.07-.57,0-.16,0-.23,0-.13,0-.18v-.15s0-.23,0-.56v0a.92.92,0,0,0,.65.1,1.87,1.87,0,0,0,.88-.33,1.43,1.43,0,0,0,.34-.48,2.24,2.24,0,0,0,.16-.57c-.53-.28-.93-.49-1.48-.13a2.46,2.46,0,0,0-.56.53l0,0v-.35c0-.45,0-.9,0-1.24,0-.17,0-.31,0-.4s0-.16,0-.16v-.15a1.41,1.41,0,0,1,0-.18,1,1,0,0,1,0-.23v0A1.65,1.65,0,0,0,5,11a1.29,1.29,0,0,0,.43-.41,1.69,1.69,0,0,0,.26-.52A3.21,3.21,0,0,0,5,9.62a1,1,0,0,0-.77,0,2.36,2.36,0,0,0-.64.41l0,0,.06-.36c0-.22.09-.44.14-.64s.09-.4.14-.56C4,8.22,4.07,8,4.07,8l0-.15c0-.09.08-.22.14-.38v0a1.66,1.66,0,0,0,1.5.37A1,1,0,0,0,6,7.69a2,2,0,0,0,.25-.18,1.83,1.83,0,0,0,.36-.44c-.37-.45-.65-.81-1.3-.7a1.94,1.94,0,0,0-.72.25l0,0,.14-.33c.09-.21.19-.41.28-.6s.09-.18.13-.27.09-.16.13-.24a3.81,3.81,0,0,0,.2-.36A1.78,1.78,0,0,0,7,4c.23-.43.5-1.64,0-1.79A2,2,0,0,0,5.21,3a2.1,2.1,0,0,0-.1,1.62L4.9,5l-.13.24a2.1,2.1,0,0,0-.13.26v0a2.43,2.43,0,0,0,0-.27,2.28,2.28,0,0,0,0-.26,1.32,1.32,0,0,0-.13-.41,1.76,1.76,0,0,0-1-.74,3.27,3.27,0,0,0-.29.39,1.18,1.18,0,0,0-.11.19A.64.64,0,0,0,3,4.6a1,1,0,0,0,.08.83,2.2,2.2,0,0,0,.49.63.73.73,0,0,0,.69.22l.08,0c-.08.19-.15.38-.23.56S4,7,4,7.08l-.09.26c-.06.16-.1.3-.14.39l0,.16s-.07.22-.16.55A5.48,5.48,0,0,0,3.4,9V9a3,3,0,0,0-.15-.51A1.23,1.23,0,0,0,3,8.08a1.72,1.72,0,0,0-1.18-.47c-.07.15-.14.29-.19.43a1.29,1.29,0,0,0-.1.41,1,1,0,0,0,.27.79,2.1,2.1,0,0,0,.61.5.71.71,0,0,0,.72.07l.08-.07c0,.2-.08.4-.11.59s-.06.41-.08.58,0,.17,0,.24,0,.13,0,.18v.16s0,0,0,.15,0,.25,0,.42,0,.36,0,.56h0a2,2,0,0,0-.54-.8,1.73,1.73,0,0,0-1.25-.22,2.31,2.31,0,0,0-.11.87.8.8,0,0,0,.11.37,1.33,1.33,0,0,0,.3.34,2.25,2.25,0,0,0,.69.37.72.72,0,0,0,.73-.07.24.24,0,0,0,.06-.08c0,.43,0,.86,0,1.19s0,.57,0,.57,0,.06,0,.16,0,.11,0,.18,0,.14,0,.23,0,.35.07.56v0a1.91,1.91,0,0,0-.66-.69,1.79,1.79,0,0,0-1.27,0c0,.65,0,1.16.56,1.49a2.56,2.56,0,0,0,.74.25.73.73,0,0,0,.7-.18s0-.06.05-.09c0,.2.07.4.1.59a5.61,5.61,0,0,0,.12.57c.08.34.13.57.13.57s0,.05,0,.15l.12.4c0,.16.11.34.17.54h0a1.88,1.88,0,0,0-.78-.56,1.74,1.74,0,0,0-1.25.22,2.72,2.72,0,0,0,.2.88,1,1,0,0,0,.65.52,2.31,2.31,0,0,0,.78.1.74.74,0,0,0,.65-.33.29.29,0,0,0,0-.1c.07.19.14.39.22.56l.24.54.25.51.07.15c0,.09.11.21.19.36l.28.5h0a1.91,1.91,0,0,0-.88-.39,1.73,1.73,0,0,0-1.18.47,2.43,2.43,0,0,0,.37.81,1.05,1.05,0,0,0,.74.39,2.48,2.48,0,0,0,.79-.06A.75.75,0,0,0,5.8,24a.34.34,0,0,0,0-.1c.24.36.49.71.68,1l.25.34a.71.71,0,0,1,.1.12l.1.12.27.32c.11.13.23.28.38.43h0a2,2,0,0,0-.94-.2,1.75,1.75,0,0,0-1,.71c.33.59.64,1,1.33.93a2.23,2.23,0,0,0,.75-.22.74.74,0,0,0,.47-.55.43.43,0,0,0,0-.11l.43.43.34.31-.07.05L9,28.82l0,0-4.1,2.51,2.83,1-.6,3.57,4.66-2.6-.11-1.28c4-1.71,10.83-1.82,11.33-1.83s7.41.12,11.4,1.86l-.11,1.25,4.67,2.6-.6-3.57,2.82-1L37,28.82l-.06-.06.17-1.26,0,0c.11-.11.24-.21.37-.34l.43-.42a.3.3,0,0,0,0,.1.77.77,0,0,0,.47.56,2.49,2.49,0,0,0,.75.22c.69.07,1-.35,1.34-.94a1.8,1.8,0,0,0-1.06-.71,2,2,0,0,0-.94.2h0c.14-.15.26-.3.37-.43s.21-.24.27-.32l.1-.12.1-.12c.06-.08.14-.2.25-.33s.44-.62.68-1a.34.34,0,0,0,0,.1.73.73,0,0,0,.57.45,2,2,0,0,0,.79.06,1.05,1.05,0,0,0,.74-.39,2.43,2.43,0,0,0,.37-.81,1.78,1.78,0,0,0-1.18-.47,1.91,1.91,0,0,0-.88.39h0l.28-.49c.08-.16.15-.28.19-.37a1.38,1.38,0,0,0,.07-.14l.25-.52.24-.54c.08-.17.15-.37.22-.56a.29.29,0,0,0,0,.1.74.74,0,0,0,.65.33,2.27,2.27,0,0,0,.78-.1,1,1,0,0,0,.65-.52,2.66,2.66,0,0,0,.2-.88,1.74,1.74,0,0,0-1.25-.22,2,2,0,0,0-.78.56h0a5.44,5.44,0,0,0,.17-.54l.12-.4c0-.1,0-.15,0-.15l.14-.56c0-.17.07-.37.11-.58s.07-.39.1-.59c0,0,0,.06,0,.09a.73.73,0,0,0,.7.18,2.21,2.21,0,0,0,.74-.25c.61-.33.61-.83.56-1.49a1.79,1.79,0,0,0-1.27,0,1.76,1.76,0,0,0-.66.69h0c0-.2,0-.4.07-.56A2,2,0,0,0,43,15.48ZM15.75,11.35l-.36-.1c-1.86-.62-5-2.24-5.09-6,0-1.15.57-3.39,1.91-3.39a.54.54,0,0,1,.38.11c.14.14.14.5.14.85,0,.69,0,1.74,1.26,2a1.39,1.39,0,0,0,1.29-.26s0,0,0,0a17.65,17.65,0,0,0,.87,7A3.22,3.22,0,0,0,15.75,11.35Zm14.9-6.9,0,0A1.39,1.39,0,0,0,32,4.75c1.27-.24,1.27-1.29,1.27-2,0-.35,0-.71.13-.85a.54.54,0,0,1,.38-.11c1.34,0,1.91,2.24,1.91,3.38-.08,3.82-3.23,5.44-5.09,6.06l-.36.1a3.22,3.22,0,0,0-.44.14A17.63,17.63,0,0,0,30.65,4.45Zm6,22.71.13.05,0,0h0Z"/><rect class="cls-2" x="17.75" y="23.97" width="10.45" height="5.01"/><path class="cls-3" d="M22.65,17.64s.14,5-4.27,5.59H23V17.64Z"/><path class="cls-3" d="M23.31,17.64s-.14,5,4.27,5.59H23V17.64Z"/><rect class="cls-4" x="18.38" y="23.23" width="9.21" height="0.74"/><path class="cls-4" d="M23,15.65H21.48s-.66,2.58,1.51,2.58Z"/><path class="cls-4" d="M23,15.65H24.5s.66,2.58-1.52,2.58Z"/><path class="cls-4" d="M15.77,14a1,1,0,0,1-.48-.11.65.65,0,0,1-.34-.63.68.68,0,0,1,.44-.68.45.45,0,0,1,.49.17.47.47,0,0,1-.05.57.28.28,0,0,1-.1.09.83.83,0,0,0,.52-.16.59.59,0,0,0,.24-.63c-.09-.46-.35-.55-.89-.7l-.39-.11c-3.43-1.15-5.43-3.55-5.5-6.61,0-1.25.63-4,2.5-4A1.09,1.09,0,0,1,13,1.5a1.65,1.65,0,0,1,.31,1.27c0,.78,0,1.26.79,1.4h0a.85.85,0,0,0,.77-.13.77.77,0,0,0,.21-.72c0-.22-.11-.58-.37-.56a.36.36,0,0,0-.29.19h0l0,0a.29.29,0,0,1-.38.44.59.59,0,0,1-.16-.74,1,1,0,0,1,1-.5c.21,0,.7.21.8,1.07a1.37,1.37,0,0,1-.41,1.23A1.39,1.39,0,0,1,14,4.75c-1.27-.24-1.27-1.29-1.26-2,0-.35,0-.71-.14-.85a.54.54,0,0,0-.38-.11c-1.34,0-1.91,2.24-1.91,3.39.08,3.81,3.23,5.43,5.09,6.05l.36.1c.54.15,1.16.32,1.31,1.16a1.15,1.15,0,0,1-.46,1.21A1.36,1.36,0,0,1,15.77,14Z"/><path class="cls-4" d="M30.2,14a1.36,1.36,0,0,1-.83-.28,1.16,1.16,0,0,1-.46-1.22c.15-.83.77-1,1.31-1.15l.36-.1c1.86-.62,5-2.24,5.09-6.06,0-1.14-.57-3.38-1.91-3.38a.54.54,0,0,0-.38.11c-.14.14-.14.5-.13.85,0,.69,0,1.74-1.27,2a1.39,1.39,0,0,1-1.29-.26,1.37,1.37,0,0,1-.41-1.23c.1-.86.59-1,.8-1.07a1,1,0,0,1,1,.5.59.59,0,0,1-.16.74A.29.29,0,1,1,31.51,3s0,0,0,0a.36.36,0,0,0-.29-.19c-.27,0-.35.34-.37.56a.77.77,0,0,0,.21.72.85.85,0,0,0,.77.13h0c.75-.14.79-.62.79-1.4A1.7,1.7,0,0,1,33,1.5a1.09,1.09,0,0,1,.79-.28c1.87,0,2.5,2.73,2.5,4-.06,3.06-2.07,5.46-5.5,6.61l-.39.11c-.54.15-.8.24-.88.69a.58.58,0,0,0,.23.64.83.83,0,0,0,.52.16.28.28,0,0,1-.1-.09.47.47,0,0,1-.05-.57.46.46,0,0,1,.49-.17.68.68,0,0,1,.45.68.66.66,0,0,1-.35.63A1,1,0,0,1,30.2,14Z"/><path class="cls-2" d="M23,1H15.73S12.57,16.09,23,16.09Z"/><path class="cls-2" d="M23,1h7.29S33.4,16.09,23,16.09Z"/><path class="cls-5" d="M27.87,3.87c.87.68,2.14-.45,1.37-1.31C28.27,1.48,26.8,3.05,27.87,3.87Z"/><path class="cls-5" d="M28.16,6.21c.64.49,1.56-.33,1-1C28.45,4.47,27.39,5.61,28.16,6.21Z"/><polygon class="cls-6" points="10.14 28.11 4.85 31.36 7.67 32.37 7.08 35.94 11.74 33.34 10.14 28.11"/><path class="cls-7" d="M5.75,7.81c-.41.13-1.55,0-1.57-.6,0-.25.18-.44.42-.59a1.94,1.94,0,0,1,.72-.25c.65-.11.93.25,1.3.7a1.83,1.83,0,0,1-.36.44A2,2,0,0,1,6,7.69.88.88,0,0,1,5.75,7.81Z"/><path class="cls-7" d="M4.49,4.57A1.32,1.32,0,0,1,4.62,5a2.28,2.28,0,0,1,0,.26,2.43,2.43,0,0,1,0,.27c0,.36-.14.68-.41.77a.76.76,0,0,1-.7-.22,2.34,2.34,0,0,1-.48-.63A1,1,0,0,1,3,4.6a.64.64,0,0,1,.08-.19,1.18,1.18,0,0,1,.11-.19,3.27,3.27,0,0,1,.29-.39A1.76,1.76,0,0,1,4.49,4.57Z"/><path class="cls-7" d="M3.7,7.89l0-.16.14-.39L4,7.08a2.49,2.49,0,0,1,.11-.29l.26-.63c.09-.21.2-.41.29-.61l.14-.28L4.9,5l.28-.51.34.2-.28.49-.13.24c0,.09-.08.18-.13.27s-.19.39-.28.6l-.25.61a1.62,1.62,0,0,0-.11.28l-.09.26-.14.38,0,.15Z"/><path class="cls-7" d="M5,11c-.38.21-1.52.32-1.66-.26a.51.51,0,0,1,0-.34,1,1,0,0,1,.24-.32,2.36,2.36,0,0,1,.64-.41,1,1,0,0,1,.77,0,3.21,3.21,0,0,1,.66.43,1.69,1.69,0,0,1-.26.52A1.29,1.29,0,0,1,5,11Z"/><path class="cls-7" d="M3,8.08a1.23,1.23,0,0,1,.22.38A3,3,0,0,1,3.4,9a1.14,1.14,0,0,1,0,.49.48.48,0,0,1-.23.35.71.71,0,0,1-.72-.07,2.1,2.1,0,0,1-.61-.5,1,1,0,0,1-.27-.79A1.29,1.29,0,0,1,1.66,8c.05-.14.12-.28.19-.43A1.72,1.72,0,0,1,3,8.08Z"/><path class="cls-7" d="M3,11.49v-.16l0-.18q0-.11,0-.24l.08-.58c0-.21.08-.44.12-.66s.09-.45.14-.66.09-.41.15-.57l.16-.55L4.07,8l-.16.54c-.05.16-.09.35-.14.56s-.1.42-.14.64l-.12.65L3.44,11a1,1,0,0,0,0,.23l0,.18v.15Z"/><path class="cls-7" d="M4.85,14.29a1.87,1.87,0,0,1-.88.33c-.35.05-.69,0-.81-.28a.72.72,0,0,1,.15-.7,2.46,2.46,0,0,1,.56-.53c.55-.36,1-.15,1.48.13a2.24,2.24,0,0,1-.16.57A1.43,1.43,0,0,1,4.85,14.29Z"/><path class="cls-7" d="M2.37,11.81a2,2,0,0,1,.54.8,2.17,2.17,0,0,1,.07.24,2.32,2.32,0,0,1,0,.24.48.48,0,0,1-.16.38.72.72,0,0,1-.73.07,2.25,2.25,0,0,1-.69-.37,1.33,1.33,0,0,1-.3-.34A.8.8,0,0,1,1,12.46a2.31,2.31,0,0,1,.11-.87A1.73,1.73,0,0,1,2.37,11.81Z"/><path class="cls-7" d="M3,15.15l0-.57c0-.35,0-.8,0-1.26s0-.92,0-1.26c0-.17,0-.32,0-.42l0-.15.39,0,0,.16c0,.09,0,.23,0,.4,0,.34-.05.79,0,1.24s0,.9,0,1.24l0,.56Z"/><path class="cls-7" d="M5.26,17.63a1.92,1.92,0,0,1-.81.46.77.77,0,0,1-.85-.15.75.75,0,0,1,0-.72,2,2,0,0,1,.47-.61c.48-.45.91-.31,1.48-.12a1.46,1.46,0,0,1,0,.29c0,.1,0,.21,0,.31A1.37,1.37,0,0,1,5.26,17.63Z"/><path class="cls-7" d="M2.42,15.57a1.91,1.91,0,0,1,.66.69.76.76,0,0,1,.07.87.73.73,0,0,1-.7.18,2.56,2.56,0,0,1-.74-.25c-.61-.33-.61-.84-.56-1.49A1.79,1.79,0,0,1,2.42,15.57Z"/><path class="cls-7" d="M3.55,18.77l-.13-.57a5.61,5.61,0,0,1-.12-.57c0-.21-.08-.44-.11-.66s-.07-.46-.1-.67L3,15.72l0-.23,0-.18v-.16l.39,0v.33l0,.23.07.57c0,.21.06.43.09.65s.08.45.12.66.06.4.11.56l.13.55Z"/><path class="cls-7" d="M6.29,20.71a2,2,0,0,1-.7.63c-.31.17-.64.24-.85,0a.7.7,0,0,1-.11-.71A2.34,2.34,0,0,1,5,20a1,1,0,0,1,.64-.43,2.63,2.63,0,0,1,.79,0,2.2,2.2,0,0,1,0,.59A1.33,1.33,0,0,1,6.29,20.71Z"/><path class="cls-7" d="M3.09,19.29a1.88,1.88,0,0,1,.78.56,1.17,1.17,0,0,1,.26.42.45.45,0,0,1,0,.41.74.74,0,0,1-.65.33,2.31,2.31,0,0,1-.78-.1A1,1,0,0,1,2,20.39a2.72,2.72,0,0,1-.2-.88A1.74,1.74,0,0,1,3.09,19.29Z"/><path class="cls-7" d="M4.86,22.19l-.25-.51-.24-.54c-.09-.2-.16-.41-.25-.63s-.16-.43-.23-.63-.14-.39-.18-.56l-.12-.4c0-.1,0-.15,0-.15l.38-.1s0,0,0,.15l.11.39q.07.24.18.54c.07.2.14.42.22.62s.16.43.25.62l.23.52.25.51Z"/><path class="cls-7" d="M7.92,23.54c-.13.41-.87,1.28-1.38,1a.71.71,0,0,1-.25-.67,2.06,2.06,0,0,1,.18-.74c.28-.61.73-.64,1.31-.7A1.77,1.77,0,0,1,8,23,1.45,1.45,0,0,1,7.92,23.54Z"/><path class="cls-7" d="M4.51,22.8a1.91,1.91,0,0,1,.88.39A.8.8,0,0,1,5.8,24a.75.75,0,0,1-.57.45,2.48,2.48,0,0,1-.79.06,1.05,1.05,0,0,1-.74-.39,2.43,2.43,0,0,1-.37-.81A1.73,1.73,0,0,1,4.51,22.8Z"/><path class="cls-7" d="M6.83,25.29l-.1-.12-.25-.34c-.21-.27-.47-.65-.72-1s-.48-.79-.64-1.1c-.08-.15-.15-.27-.19-.36l-.07-.15L5.21,22l.07.14c0,.09.11.21.19.36.15.3.38.68.62,1.07s.5.74.7,1,.19.25.25.32l.1.12Z"/><path class="cls-7" d="M10.12,26c0,.43-.6,1.44-1.16,1.24a.73.73,0,0,1-.39-.61,2.37,2.37,0,0,1,0-.77A1,1,0,0,1,9,25.18a3.08,3.08,0,0,1,.73-.3,1.92,1.92,0,0,1,.28.51A1.51,1.51,0,0,1,10.12,26Z"/><path class="cls-7" d="M6.62,26a2,2,0,0,1,.94.2,1.35,1.35,0,0,1,.41.28.52.52,0,0,1,.15.39.74.74,0,0,1-.47.55,2.23,2.23,0,0,1-.75.22c-.69.08-1-.34-1.33-.93A1.75,1.75,0,0,1,6.62,26Z"/><path class="cls-7" d="M9.41,27.91l-.13-.11L9,27.53l-.44-.39-.48-.48c-.16-.16-.32-.33-.46-.49s-.28-.31-.39-.44l-.27-.32-.1-.12L7.14,25l.1.12a3.7,3.7,0,0,0,.26.32c.11.12.23.28.38.43s.29.32.45.48l.47.46c.15.15.3.28.43.39l.31.27.11.09Z"/><path class="cls-7" d="M12.74,27.87a1.93,1.93,0,0,1-.18.91c-.15.32-.37.59-.67.55a.56.56,0,0,1-.31-.17,1.13,1.13,0,0,1-.2-.34,2.23,2.23,0,0,1-.13-.75c0-.66.4-.88.91-1.17A1.74,1.74,0,0,1,12.74,27.87Z"/><path class="cls-7" d="M9.34,28.6a1.93,1.93,0,0,1,1,0,1.13,1.13,0,0,1,.24.08,1,1,0,0,1,.21.1.56.56,0,0,1,.24.35.76.76,0,0,1-.34.65,2.23,2.23,0,0,1-.69.37,1.32,1.32,0,0,1-.46.07,1.29,1.29,0,0,1-.38-.12,2.41,2.41,0,0,1-.67-.59A1.72,1.72,0,0,1,9.34,28.6Z"/><path class="cls-7" d="M12.49,29.91,12,29.65l-.51-.29L10.89,29l-.56-.38c-.18-.13-.34-.25-.47-.36L9.53,28l-.12-.1.24-.31.12.1.32.25c.13.11.29.22.47.35s.35.24.54.37.38.24.56.35l.5.28.5.26Z"/><path class="cls-7" d="M5.36,4.87C4.77,4.72,5,3.42,5.21,3a2,2,0,0,1,1.73-.84c.54.15.27,1.36,0,1.79a1.87,1.87,0,0,1-1.67.89Z"/><path class="cls-7" d="M40.22,7.81c.41.12,1.55,0,1.57-.61,0-.24-.18-.44-.42-.58a2,2,0,0,0-.72-.26c-.65-.1-.93.25-1.3.7a1.88,1.88,0,0,0,.37.45,2.07,2.07,0,0,0,.24.17A.91.91,0,0,0,40.22,7.81Z"/><path class="cls-7" d="M41.48,4.56a1.1,1.1,0,0,0-.12.42,2.06,2.06,0,0,0,0,.26v.27a.8.8,0,0,0,.42.77.76.76,0,0,0,.69-.23,2.2,2.2,0,0,0,.48-.63A1,1,0,0,0,43,4.59a1.46,1.46,0,0,0-.07-.19l-.12-.19a4.34,4.34,0,0,0-.29-.39A1.8,1.8,0,0,0,41.48,4.56Z"/><path class="cls-7" d="M42.27,7.88l0-.15-.14-.4L42,7.07c0-.09-.07-.19-.11-.29l-.26-.63c-.09-.21-.2-.41-.29-.61s-.09-.19-.14-.28L41.07,5l-.28-.51-.33.2.27.49.13.24.13.27.28.6.26.61c0,.1.07.19.1.28l.09.26.14.39,0,.14Z"/><path class="cls-7" d="M41,11c.38.21,1.52.32,1.67-.25a.48.48,0,0,0,0-.35,1.17,1.17,0,0,0-.24-.32,2.36,2.36,0,0,0-.64-.41,1,1,0,0,0-.77,0,2.55,2.55,0,0,0-.66.43,1.58,1.58,0,0,0,.27.51A1.18,1.18,0,0,0,41,11Z"/><path class="cls-7" d="M42.94,8.08a1.17,1.17,0,0,0-.22.37,3,3,0,0,0-.15.51,1.38,1.38,0,0,0,0,.5.48.48,0,0,0,.23.34.7.7,0,0,0,.72-.07,2.1,2.1,0,0,0,.61-.5,1,1,0,0,0,.27-.78A1.51,1.51,0,0,0,44.32,8l-.2-.44A1.72,1.72,0,0,0,42.94,8.08Z"/><path class="cls-7" d="M43,11.48v-.16l0-.18a2.08,2.08,0,0,0,0-.23l-.08-.59c0-.21-.08-.43-.12-.66s-.09-.45-.14-.66-.09-.41-.14-.57l-.17-.55L41.9,8l.16.54c0,.16.09.36.14.56s.1.42.14.65.08.44.12.64l.08.58c0,.08,0,.16,0,.22v.18l0,.15Z"/><path class="cls-7" d="M41.13,14.29a2,2,0,0,0,.87.33c.35,0,.69,0,.81-.29a.72.72,0,0,0-.15-.7,2.46,2.46,0,0,0-.56-.53c-.55-.36-1-.15-1.48.13a2.13,2.13,0,0,0,.16.57A1.37,1.37,0,0,0,41.13,14.29Z"/><path class="cls-7" d="M43.6,11.8a2,2,0,0,0-.54.8,2.33,2.33,0,0,0-.07.25,2,2,0,0,0,0,.23.51.51,0,0,0,.16.39.75.75,0,0,0,.73.06,2.14,2.14,0,0,0,.69-.37,1.3,1.3,0,0,0,.3-.33.87.87,0,0,0,.11-.38,2.31,2.31,0,0,0-.11-.87A1.78,1.78,0,0,0,43.6,11.8Z"/><path class="cls-7" d="M43,15.14l0-.57c0-.34,0-.8,0-1.26s0-.92,0-1.26c0-.17,0-.32,0-.42l0-.15-.38,0v.16c0,.1,0,.24,0,.4,0,.34,0,.79,0,1.24s0,.9,0,1.24l0,.56Z"/><path class="cls-7" d="M40.71,17.63a1.92,1.92,0,0,0,.81.45c.34.1.69.1.85-.15a.75.75,0,0,0,0-.72,2,2,0,0,0-.47-.61c-.48-.45-.91-.31-1.48-.12a1.56,1.56,0,0,0,0,.3c0,.1,0,.2,0,.3A1.57,1.57,0,0,0,40.71,17.63Z"/><path class="cls-7" d="M43.55,15.57a1.76,1.76,0,0,0-.66.69.62.62,0,0,0,.63,1,2.21,2.21,0,0,0,.74-.25c.61-.33.61-.83.56-1.49A1.79,1.79,0,0,0,43.55,15.57Z"/><path class="cls-7" d="M42.42,18.76l.14-.56c0-.17.07-.37.11-.58s.08-.44.11-.66.07-.45.1-.67l.07-.58,0-.23v-.34l-.39,0v.33l0,.23-.06.57c0,.21-.07.43-.1.66s-.08.44-.11.65-.07.4-.12.56l-.12.55Z"/><path class="cls-7" d="M39.68,20.7a1.9,1.9,0,0,0,.7.63c.31.17.64.24.85,0a.72.72,0,0,0,.11-.72A2.34,2.34,0,0,0,41,20a1,1,0,0,0-.64-.43,2.63,2.63,0,0,0-.79,0,2.2,2.2,0,0,0-.05.59A1.33,1.33,0,0,0,39.68,20.7Z"/><path class="cls-7" d="M42.88,19.28a2,2,0,0,0-.78.56,1.27,1.27,0,0,0-.26.42.45.45,0,0,0,0,.41.74.74,0,0,0,.65.33,2.31,2.31,0,0,0,.78-.1,1,1,0,0,0,.65-.52,2.66,2.66,0,0,0,.2-.88A1.74,1.74,0,0,0,42.88,19.28Z"/><path class="cls-7" d="M41.11,22.19l.25-.52.24-.54c.09-.19.16-.41.25-.62s.16-.43.23-.64.14-.39.18-.56l.12-.4c0-.1,0-.15,0-.15l-.37-.1,0,.15-.11.39c0,.16-.11.35-.18.55s-.14.41-.22.62-.16.42-.25.61l-.23.53-.25.5Z"/><path class="cls-7" d="M38.05,23.53c.13.42.87,1.28,1.38,1a.73.73,0,0,0,.25-.68,2.11,2.11,0,0,0-.18-.74c-.27-.6-.73-.64-1.31-.7A1.59,1.59,0,0,0,38,23,1.25,1.25,0,0,0,38.05,23.53Z"/><path class="cls-7" d="M41.46,22.79a1.91,1.91,0,0,0-.88.39.8.8,0,0,0-.41.77.73.73,0,0,0,.57.45,2,2,0,0,0,.79.06,1.05,1.05,0,0,0,.74-.39,2.43,2.43,0,0,0,.37-.81A1.78,1.78,0,0,0,41.46,22.79Z"/><path class="cls-7" d="M39.14,25.28l.1-.12c.06-.08.14-.2.25-.33s.47-.66.72-1,.48-.79.64-1.09.15-.28.19-.37l.07-.14L40.76,22l-.07.14c0,.09-.11.21-.19.36s-.38.69-.62,1.07-.5.74-.7,1l-.25.33-.1.12Z"/><path class="cls-7" d="M35.86,26c0,.43.59,1.43,1.15,1.23a.73.73,0,0,0,.39-.61,2.29,2.29,0,0,0,0-.76,1,1,0,0,0-.41-.66,3.08,3.08,0,0,0-.73-.3,1.92,1.92,0,0,0-.28.51A1.37,1.37,0,0,0,35.86,26Z"/><path class="cls-7" d="M39.35,25.94a2,2,0,0,0-.94.2,1.35,1.35,0,0,0-.41.28.52.52,0,0,0-.15.39.77.77,0,0,0,.47.56,2.49,2.49,0,0,0,.75.22c.69.07,1-.35,1.34-.94A1.8,1.8,0,0,0,39.35,25.94Z"/><path class="cls-7" d="M36.57,27.9l.12-.1.31-.28.44-.39.48-.48c.16-.16.32-.33.46-.49s.28-.31.39-.44.21-.24.27-.32l.1-.12L38.83,25l-.09.12c-.07.07-.15.18-.27.31s-.23.28-.38.43-.29.32-.45.48l-.47.46c-.15.15-.3.28-.43.39s-.23.21-.3.27l-.12.1Z"/><path class="cls-7" d="M33.23,27.86a2,2,0,0,0,.18.92c.15.32.38.58.67.54a.56.56,0,0,0,.31-.17,1.13,1.13,0,0,0,.2-.34,2.51,2.51,0,0,0,.14-.75c0-.66-.41-.87-.92-1.17A1.74,1.74,0,0,0,33.23,27.86Z"/><path class="cls-7" d="M36.63,28.59a1.89,1.89,0,0,0-1,0l-.25.08a.7.7,0,0,0-.21.11.51.51,0,0,0-.24.35.76.76,0,0,0,.34.64,2.23,2.23,0,0,0,.69.37,1.12,1.12,0,0,0,.46.07,1.05,1.05,0,0,0,.38-.12,2.59,2.59,0,0,0,.68-.59A1.78,1.78,0,0,0,36.63,28.59Z"/><path class="cls-7" d="M33.49,29.9l.51-.26.51-.29c.18-.12.38-.23.57-.36s.39-.25.56-.38l.48-.35.32-.26.13-.1-.25-.3-.12.1-.32.25-.46.34c-.17.13-.36.25-.55.37s-.38.24-.56.35l-.5.29-.5.25Z"/><path class="cls-7" d="M40.61,4.86c.59-.14.38-1.45.15-1.84A2,2,0,0,0,39,2.18c-.54.15-.27,1.36,0,1.79a1.86,1.86,0,0,0,1.68.89Z"/><polygon class="cls-8" points="11.74 33.34 9.58 33.34 11.54 31.07 11.74 33.34"/><polygon class="cls-6" points="35.85 28.11 41.14 31.36 38.32 32.37 38.92 35.94 34.25 33.34 35.85 28.11"/><polygon class="cls-8" points="34.25 33.34 36.41 33.34 34.45 31.07 34.25 33.34"/><path class="cls-9" d="M8.8,27.5S12.63,24.18,23,24.18v6.05s-10.38.08-13.41,3.11Z"/><path class="cls-9" d="M37.11,27.5s-3.83-3.32-14.18-3.32v6.05s10.37.08,13.4,3.11Z"/><path class="cls-10" d="M15.53,29.67l-1.19-2.89.73-.12.42,1.21.35,1h0c0-.34,0-.71,0-1.09l.06-1.27.73-.12.44,1.23c.12.34.22.66.32,1h0c0-.34,0-.7,0-1.07l0-1.27.69-.11-.3,3.13-.74.12-.46-1.26c-.1-.29-.2-.56-.29-.9h0c0,.35,0,.64,0,1l-.09,1.34Z"/><path class="cls-10" d="M19.37,26.09l.29,3-.69.06-.28-3Z"/><path class="cls-10" d="M20.21,29.07,20.09,26l.81,0,.67,1.09a10.09,10.09,0,0,1,.54,1h0A12,12,0,0,1,22,26.84L22,26l.63,0,.12,3L22,29l-.7-1.15a11.89,11.89,0,0,1-.57-1.06h0c0,.4.06.83.08,1.33l0,.91Z"/><path class="cls-10" d="M23.27,29l.13-3,.8,0,.59,1.14a10.07,10.07,0,0,1,.45,1.07h0c0-.41,0-.82,0-1.27l0-.89.63,0-.13,3-.73,0-.59-1.21c-.17-.33-.35-.73-.49-1.09h0c0,.4,0,.83,0,1.33l0,.92Z"/><path class="cls-10" d="M28.28,28.08l-1.11-.14-.09.72,1.24.16-.07.56-1.93-.24.38-3,1.87.24-.08.56-1.18-.15-.07.63,1.11.14Z"/><path class="cls-10" d="M29.27,26.5a6.9,6.9,0,0,1,.92.13,1.62,1.62,0,0,1,.91.44.76.76,0,0,1,.14.68.79.79,0,0,1-.68.62v0a.78.78,0,0,1,.28.64c0,.36,0,.76.06.89l-.69-.14a4,4,0,0,1-.06-.74c0-.39-.11-.52-.38-.58l-.2-.05-.25,1.18-.67-.14Zm.4,1.43.27.05c.33.08.57-.05.62-.31s-.1-.45-.41-.52a1.14,1.14,0,0,0-.31,0Z"/></g></g></svg>