<svg xmlns="http://www.w3.org/2000/svg" viewBox="0 0 23 23"><defs><style>.cls-1{fill:#ffc107;}.cls-2{fill:#ff3d00;}.cls-3{fill:#4caf50;}.cls-4{fill:#1976d2;}.cls-5{fill:none;}</style></defs><g id="Layer_2" data-name="Layer 2"><g id="Layer_1-2" data-name="Layer 1"><path class="cls-1" d="M20.82,9.64h-.77v0H11.5v3.8h5.37a5.7,5.7,0,1,1-1.59-6.16L18,4.56a9.49,9.49,0,1,0,3,6.94A10.29,10.29,0,0,0,20.82,9.64Z"/><path class="cls-2" d="M3.1,7.08,6.22,9.37a5.69,5.69,0,0,1,9.06-2.13L18,4.56A9.47,9.47,0,0,0,3.1,7.08Z"/><path class="cls-3" d="M11.5,21a9.46,9.46,0,0,0,6.37-2.47l-2.94-2.48a5.69,5.69,0,0,1-8.79-2.62L3,15.81A9.49,9.49,0,0,0,11.5,21Z"/><path class="cls-4" d="M20.82,9.64h-.77v0H11.5v3.8h5.37a5.79,5.79,0,0,1-1.94,2.65h0l2.94,2.48a9.18,9.18,0,0,0,3.13-7A10.29,10.29,0,0,0,20.82,9.64Z"/><rect class="cls-5" width="23" height="23"/></g></g></svg>