<svg xmlns="http://www.w3.org/2000/svg" viewBox="0 0 313.85 313.84"><defs><style>.cls-1{fill:#fff;}</style></defs><g id="Layer_2" data-name="Layer 2"><g id="Layer_1-2" data-name="Layer 1"><path class="cls-1" d="M3.81,84.25A3.78,3.78,0,0,1,0,80.46V3.8A3.82,3.82,0,0,1,1.12,1.11,3.87,3.87,0,0,1,3.81,0H80.47a3.8,3.8,0,0,1,3.29,5.7,3.82,3.82,0,0,1-3.29,1.9H7.61V80.46a3.79,3.79,0,0,1-3.8,3.79Z"/><path class="cls-1" d="M310.05,84.25a3.73,3.73,0,0,1-1.9-.51,3.8,3.8,0,0,1-1.9-3.29V7.6H233.39a3.8,3.8,0,0,1,0-7.6h76.66a3.87,3.87,0,0,1,2.69,1.11,3.87,3.87,0,0,1,1.11,2.69V80.46a3.78,3.78,0,0,1-3.8,3.79Z"/><path class="cls-1" d="M3.8,313.84A3.82,3.82,0,0,1,0,310V233.38a3.8,3.8,0,0,1,5.7-3.29,3.82,3.82,0,0,1,1.9,3.29v72.86H80.46a3.8,3.8,0,0,1,0,7.6Z"/><path class="cls-1" d="M233.39,313.84a3.8,3.8,0,0,1,0-7.6h72.86V233.39a3.84,3.84,0,0,1,1.9-3.3,3.9,3.9,0,0,1,1.9-.5,3.76,3.76,0,0,1,1.9.51,3.81,3.81,0,0,1,1.9,3.29V310a3.79,3.79,0,0,1-3.8,3.8Z"/></g></g></svg>