<svg xmlns="http://www.w3.org/2000/svg" viewBox="0 0 19.76 19.77"><defs><style>.cls-1{fill:#fff;}</style></defs><g id="Layer_2" data-name="Layer 2"><g id="Layer_1-2" data-name="Layer 1"><path class="cls-1" d="M8.52,9.87c-.19-.15-.31-.22-.41-.32L.53,2a3.44,3.44,0,0,1-.27-.27,1,1,0,0,1,0-1.4,1,1,0,0,1,1.37,0A4.11,4.11,0,0,1,2,.54L9.57,8.13l.32.3.31-.31L17.82.51c.09-.09.18-.19.27-.27a1,1,0,0,1,1.44,1.42c-.09.11-.19.21-.29.31L11.65,9.55c-.1.1-.23.17-.36.28l.34.36q3.87,3.87,7.75,7.75a1,1,0,0,1-.17,1.71A1,1,0,0,1,18,19.44l-1.5-1.5L9.89,11.33l-.33.31-7.69,7.7a1.08,1.08,0,0,1-1.17.37,1,1,0,0,1-.49-1.58c.09-.11.19-.21.29-.31l7.62-7.61C8.22,10.11,8.33,10,8.52,9.87Z"/></g></g></svg>