<svg xmlns="http://www.w3.org/2000/svg" viewBox="0 0 32 32"><defs><style>.cls-1{fill:none;}.cls-2{fill:#0074b9;}</style></defs><g id="Layer_2" data-name="Layer 2"><g id="Layer_1-2" data-name="Layer 1"><rect class="cls-1" width="32" height="32"/><path class="cls-2" d="M12.19,7.87a4.15,4.15,0,0,0-.61,0h0A5.55,5.55,0,0,0,9,9a.47.47,0,0,0,0,.78,7,7,0,0,0-2.4,2.36.46.46,0,0,0,.31.73H7a4.91,4.91,0,0,0-.78,1.57c-.2.59.57.9.72.3a5.09,5.09,0,0,1,1.23-2,.55.55,0,0,0,.09-.53c-.09-.22-.25-.3-.57-.25a5.63,5.63,0,0,1,2.37-1.72.47.47,0,0,0,.27-.46A.5.5,0,0,0,10,9.31a4.45,4.45,0,0,1,1.6-.52,3,3,0,0,1,.52,0,.45.45,0,0,0,0-.89Z"/><path class="cls-2" d="M15.19,6.48l-.12,0a3.12,3.12,0,0,0-1.7,2.28,2,2,0,0,0-1,.3,13.44,13.44,0,0,0-5.68,8.13c-.13.58.61.82.74.23.59-2.57,2.69-6.07,5.27-7.54a1.29,1.29,0,0,1,1-.2.4.4,0,0,0,.45-.43A2.06,2.06,0,0,1,15,7.61,4.36,4.36,0,0,1,15,9.1a.5.5,0,0,0,.16.48,2.09,2.09,0,0,1,.66,1.1,12.37,12.37,0,0,0,.62,1.73l1,2a.41.41,0,0,0,.05.09.53.53,0,0,1,0,.69l-.18.22a.37.37,0,0,1-.6,0L16,14.52a.37.37,0,0,0-.27-.13H15a1.91,1.91,0,0,1-1.75-2.05.39.39,0,1,0-.77,0A2.76,2.76,0,0,0,15,15.29h.51l.64.76a1.06,1.06,0,0,0,1.67,0l.2-.22a1.58,1.58,0,0,0,0-2l.05.09-1-2a12.17,12.17,0,0,1-.58-1.6A3.24,3.24,0,0,0,15.79,9a5.31,5.31,0,0,0-.18-2.22.39.39,0,0,0-.42-.31Z"/><path class="cls-2" d="M13.22,13.27a.42.42,0,0,0-.37.38,8,8,0,0,0,.34,3.82c.17.55.37,1.08.53,1.63a.47.47,0,0,0,.2.26.3.3,0,0,0,.29,0,.39.39,0,0,0,.22-.23.53.53,0,0,0,0-.35c-.18-.57-.37-1.1-.53-1.62a6.82,6.82,0,0,1-.32-3.35h0a.46.46,0,0,0-.08-.38.33.33,0,0,0-.3-.16Z"/><path class="cls-2" d="M4.89,5.4H19.44V17.58a.4.4,0,1,0,.77,0V5a.42.42,0,0,0-.38-.45H4.89Z"/><path class="cls-2" d="M21.33,8.33A.44.44,0,0,0,21,8.8a.42.42,0,0,0,.38.43h5.06L23,15.76h0a.51.51,0,0,0,0,.48l3.46,6.53H13a.33.33,0,0,1-.32-.34.16.16,0,0,1,.07-.16,1.07,1.07,0,0,1,.36-.2l6.85-2.25h0a.48.48,0,0,0,.28-.5.42.42,0,0,0-.38-.39H6.42a.43.43,0,0,0-.39.45.44.44,0,0,0,.39.46H17l-4.16,1.37a1.59,1.59,0,0,0-.64.36,1.26,1.26,0,0,0-.35.86A1.18,1.18,0,0,0,13,23.67H27.12a.37.37,0,0,0,.33-.23.5.5,0,0,0,0-.46l-3.71-7,3.71-7h0a.51.51,0,0,0,0-.45.37.37,0,0,0-.33-.24H21.33Z"/><path class="cls-2" d="M4.88,3.36h0a.44.44,0,0,0-.34.46V28.64h.77s0-16.55,0-24.81a.43.43,0,0,0-.39-.47Z"/><path class="cls-2" d="M14.52,10.36a.45.45,0,0,0,0,.9.25.25,0,0,1,.2.1.38.38,0,0,1,.09.24.36.36,0,0,1-.09.24h0a.51.51,0,0,0,0,.64.35.35,0,0,0,.55,0,1.38,1.38,0,0,0,.3-.88,1.4,1.4,0,0,0-.3-.88,1,1,0,0,0-.75-.36Z"/></g></g></svg>