<svg xmlns="http://www.w3.org/2000/svg" viewBox="0 0 9.15 11.63"><defs><style>.cls-1,.cls-7{fill:#fff;}.cls-1{stroke:#fff;stroke-linecap:round;stroke-linejoin:round;}.cls-2{fill:#d72434;}.cls-3{fill:#e85e45;}.cls-4{fill:#ffc80d;}.cls-5{fill:#fc9e15;}.cls-6{fill:#fc6c00;}</style></defs><g id="Layer_2" data-name="Layer 2"><g id="Layer_1-2" data-name="Layer 1"><path class="cls-1" d="M7.24,4.07l-.67-.24.86-1.66h0l.4-.78L6.19.5H3l-1.65.89L2.58,3.83l-.66.24L.5,6.52,1,9.31l2.17,1.82H6L8.16,9.31l.49-2.79ZM3.76,2.17H5.39l-.5,1L4.57,3.1l-.31.11Z"/><polygon class="cls-2" points="2.96 0.5 6.19 0.5 7.43 2.17 1.84 2.17 2.96 0.5"/><polygon class="cls-3" points="4.58 3.87 2.96 0.5 1.31 1.4 2.94 4.53 4.58 3.87"/><polygon class="cls-3" points="4.58 3.87 6.19 0.5 7.84 1.4 6.21 4.53 4.58 3.87"/><polygon class="cls-4" points="3.16 11.13 0.99 9.31 0.5 6.52 1.92 4.07 4.58 3.1 7.24 4.07 8.65 6.52 8.16 9.31 5.99 11.13 3.16 11.13"/><polygon class="cls-5" points="3.5 10.17 1.84 8.78 1.47 6.66 2.55 4.79 4.58 4.05 6.6 4.79 7.68 6.66 7.3 8.78 5.65 10.17 3.5 10.17"/><path class="cls-6" d="M3.8,6s0,0-.06-.07a0,0,0,0,1,0,0l1.34-.54h0s0,0,0,.06S5.1,7,5.1,7.31c0,.51,0,1.35,0,1.42s.06.07.1.08l.33,0a.1.1,0,0,1,0,.08H3.87a.12.12,0,0,1,0-.08l.35,0s.08,0,.08-.07,0-1.17,0-1.38,0-1.14,0-1.39c0,0,0-.08-.07-.07Z"/><path class="cls-7" d="M3.67,5.93s0,0-.06-.07a0,0,0,0,1,0,0L5,5.29H5a0,0,0,0,1,0,0C5,5.41,5,6.92,5,7.25c0,.52,0,1.36,0,1.43s.06.07.11.08l.32,0a.1.1,0,0,1,0,.07s0,0,0,0H3.76s0,0,0,0,0-.06,0-.07l.35-.05s.08,0,.08-.06,0-1.17,0-1.38,0-1.14,0-1.39c0,0,0-.08-.08-.07Z"/></g></g></svg>