<svg xmlns="http://www.w3.org/2000/svg" viewBox="0 0 33.77 24.79"><defs><style>.cls-1{fill:#fff;}</style></defs><g id="Layer_2" data-name="Layer 2"><g id="Layer_1-2" data-name="Layer 1"><path class="cls-1" d="M11.47,11.88C13,15,16,16,19,17s6,2,7.55,5.13c.06.13.17.16.24.05l6.9-9.85a.5.5,0,0,0,0-.43c-1.52-3.13-4.53-4.13-7.55-5.12s-6-2-7.55-5.12c-.06-.14-.17-.16-.24,0l-6.9,9.85a.47.47,0,0,0,0,.42ZM26.15,7.23c2.86.94,5.69,1.94,7.2,4.81L30.16,16.6c-1.51-2.88-4.34-3.87-7.2-4.82ZM15,7.19c1.51,2.87,4.34,3.87,7.21,4.82l-3.19,4.55c-2.86-.94-5.69-1.94-7.21-4.82Z"/><path class="cls-1" d="M.29,24.67a.7.7,0,0,0,1-.17L17.64,1.08a.7.7,0,0,0-.16-1,.7.7,0,0,0-1,.17L.12,23.72a.69.69,0,0,0,.17,1Z"/></g></g></svg>