<svg xmlns="http://www.w3.org/2000/svg" viewBox="0 0 32 32"><defs><style>.cls-1{fill:none;}.cls-2{fill:#0074b9;}</style></defs><g id="Layer_2" data-name="Layer 2"><g id="Layer_1-2" data-name="Layer 1"><rect class="cls-1" width="32" height="32"/><path class="cls-2" d="M25.62,6.38H24.18V4.94a.48.48,0,0,0-.48-.48.47.47,0,0,0-.48.48V6.38H21.29V4.94a.48.48,0,1,0-1,0V6.38H11.67V4.94a.48.48,0,0,0-1,0V6.38H8.79V4.94a.49.49,0,0,0-1,0V6.38H6.38A1.91,1.91,0,0,0,4.46,8.3V25.62a1.91,1.91,0,0,0,1.92,1.92H25.62a1.91,1.91,0,0,0,1.92-1.92V8.3a1.91,1.91,0,0,0-1.92-1.92ZM5.42,8.3a1,1,0,0,1,.28-.68,1,1,0,0,1,.68-.28H7.82v1.1a1,1,0,0,0-.46.66A1,1,0,0,0,9,9.89a1,1,0,0,0,.21-.79,1,1,0,0,0-.46-.66V7.34h1.92v1.1a.94.94,0,0,0-.47.66,1,1,0,1,0,1.9,0,.94.94,0,0,0-.47-.66V7.34h8.66v1.1a.94.94,0,0,0-.47.66,1,1,0,1,0,1.9,0,.94.94,0,0,0-.47-.66V7.34h1.93v1.1a.94.94,0,0,0-.47.66,1,1,0,0,0,.21.79,1,1,0,0,0,1.68-.79,1,1,0,0,0-.46-.66V7.34h1.44a1,1,0,0,1,.68.28,1,1,0,0,1,.28.68v2.89H5.42ZM26.58,25.62a1,1,0,0,1-1,1H6.38a1,1,0,0,1-.68-.28,1,1,0,0,1-.28-.68V12.15H26.58Z"/><path class="cls-2" d="M12.15,16.48H15a.48.48,0,0,0,.48-.48V14.08A.48.48,0,0,0,15,13.6H12.15a.48.48,0,0,0-.48.48V16a.48.48,0,0,0,.48.48Zm.48-1.92h1.93v1H12.63Z"/><path class="cls-2" d="M7.34,16.48h2.89a.48.48,0,0,0,.48-.48V14.08a.48.48,0,0,0-.48-.48H7.34a.48.48,0,0,0-.48.48V16a.48.48,0,0,0,.48.48Zm.48-1.92H9.75v1H7.82Z"/><path class="cls-2" d="M21.77,16.48h2.89a.48.48,0,0,0,.48-.48V14.08a.48.48,0,0,0-.48-.48H21.77a.48.48,0,0,0-.48.48V16a.48.48,0,0,0,.48.48Zm.48-1.92h1.93v1H22.25Z"/><path class="cls-2" d="M12.15,20.81H15a.48.48,0,0,0,.48-.48V18.41a.52.52,0,0,0-.14-.35.48.48,0,0,0-.34-.14H12.15a.49.49,0,0,0-.48.48v1.93a.48.48,0,0,0,.48.48Zm.48-1.92h1.93v1H12.63Z"/><path class="cls-2" d="M7.34,20.81h2.89a.48.48,0,0,0,.48-.48V18.41a.52.52,0,0,0-.14-.35.48.48,0,0,0-.34-.14H7.34a.49.49,0,0,0-.48.48v1.93a.48.48,0,0,0,.48.48Zm.48-1.92H9.75v1H7.82Z"/><path class="cls-2" d="M17,20.81h2.89a.48.48,0,0,0,.48-.48V18.41a.52.52,0,0,0-.14-.35.48.48,0,0,0-.34-.14H17a.49.49,0,0,0-.48.48v1.93a.48.48,0,0,0,.48.48Zm.48-1.92h1.93v1H17.44Z"/><path class="cls-2" d="M12.77,25a.49.49,0,0,0,.34.14.5.5,0,0,0,.35-.14l1.92-1.92h0a.49.49,0,0,0,0-.69.48.48,0,0,0-.68,0L13.11,24l-.62-.63a.5.5,0,0,0-.68,0,.49.49,0,0,0,0,.69Z"/><path class="cls-2" d="M17.58,16.34a.49.49,0,0,0,.34.14.5.5,0,0,0,.35-.14l1.92-1.92a.49.49,0,0,0,0-.69.5.5,0,0,0-.68,0l-1.59,1.59-.62-.62a.48.48,0,1,0-.68.68Z"/><path class="cls-2" d="M22.39,20.67a.49.49,0,0,0,.34.14.5.5,0,0,0,.35-.14L25,18.75a.49.49,0,0,0,0-.69.5.5,0,0,0-.68,0l-1.59,1.59L22.11,19h0a.48.48,0,0,0-.68.68Z"/><path class="cls-2" d="M7.34,25.14h2.89a.48.48,0,0,0,.48-.48V22.73a.49.49,0,0,0-.14-.34.48.48,0,0,0-.34-.14H7.34a.49.49,0,0,0-.48.48v1.93a.48.48,0,0,0,.48.48Zm.48-1.92H9.75v1H7.82Z"/><path class="cls-2" d="M21.77,25.14h2.89a.48.48,0,0,0,.48-.48V22.73a.49.49,0,0,0-.14-.34.48.48,0,0,0-.34-.14H21.77a.49.49,0,0,0-.48.48v1.93a.48.48,0,0,0,.48.48Zm.48-1.92h1.93v1H22.25Z"/><path class="cls-2" d="M17,25.14h2.89a.48.48,0,0,0,.48-.48V22.73a.49.49,0,0,0-.14-.34.48.48,0,0,0-.34-.14H17a.49.49,0,0,0-.48.48v1.93a.48.48,0,0,0,.48.48Zm.48-1.92h1.93v1H17.44Z"/></g></g></svg>