<svg xmlns="http://www.w3.org/2000/svg" viewBox="0 0 32 32"><defs><style>.cls-1{fill:none;}.cls-2{fill:#0074b9;}</style></defs><g id="Layer_2" data-name="Layer 2"><g id="Layer_1-2" data-name="Layer 1"><rect class="cls-1" width="32" height="32"/><path class="cls-2" d="M26.12,10.18H19a5.91,5.91,0,0,0,3.18-2.33,2,2,0,0,0,.27-2,1.39,1.39,0,0,0-1.4-.58C18.8,5.41,16.82,8,16,9.19,15.18,8,13.2,5.41,11,5.23a1.39,1.39,0,0,0-1.4.58,2,2,0,0,0,.27,2A5.91,5.91,0,0,0,13,10.18H5.88a.47.47,0,0,0-.46.46v4a.47.47,0,0,0,.14.33.46.46,0,0,0,.32.13h.39V26.34a.43.43,0,0,0,.14.32.45.45,0,0,0,.32.14H25.27a.48.48,0,0,0,.46-.46V15.1h.39a.46.46,0,0,0,.32-.13.47.47,0,0,0,.14-.33v-4a.48.48,0,0,0-.46-.46Zm-8.62.92v3.08h-3V11.1Zm8.16,3.08H18.42V11.1h7.24Zm-4.54-8h.11c.15,0,.36,0,.43.15s.06.56-.26,1.07a5.51,5.51,0,0,1-4.58,2.26c.78-1.13,2.51-3.33,4.3-3.47ZM10.6,7.36c-.32-.51-.36-.91-.26-1.07s.27-.15.42-.15h.12c1.79.14,3.52,2.34,4.3,3.47A5.51,5.51,0,0,1,10.6,7.36ZM6.34,11.1h7.24v3.08H6.34Zm.85,4.13h6.4V25.88H7.19Zm7.32,10.65V15.23h3V25.88Zm10.3,0h-6.4V15.23h6.4Z"/></g></g></svg>