<svg xmlns="http://www.w3.org/2000/svg" viewBox="0 0 11.36 10.29"><defs><style>.cls-1{fill:#fff;}</style></defs><g id="Layer_2" data-name="Layer 2"><g id="Layer_1-2" data-name="Layer 1"><path class="cls-1" d="M8.12,3.8A3.25,3.25,0,1,1,4.88,7,3.24,3.24,0,0,1,8.12,3.8Z"/><path class="cls-1" d="M3.8,3.3A6.84,6.84,0,0,1,.94,2.65a2.77,2.77,0,0,1-.72-.54.65.65,0,0,1,0-1A2.77,2.77,0,0,1,1.58.35,7.07,7.07,0,0,1,6.4.5,3.11,3.11,0,0,1,7.25,1a.72.72,0,0,1,0,1.2,3.47,3.47,0,0,1-1.74.82C5,3.17,4.37,3.22,3.8,3.3Z"/><path class="cls-1" d="M0,3.38a7.7,7.7,0,0,0,4.73.91c0,.07-.06.12-.09.16a3,3,0,0,0-.37.6c-.11.35-.33.38-.64.37A6.38,6.38,0,0,1,1,4.83a2.12,2.12,0,0,1-.36-.21A1.1,1.1,0,0,1,0,3.38Z"/><path class="cls-1" d="M4.68,9.72c-.54,0-1,0-1.56,0A5.6,5.6,0,0,1,.93,9.14,3.74,3.74,0,0,1,.4,8.79a.94.94,0,0,1-.37-1c.42.17.83.38,1.27.53a7.69,7.69,0,0,0,2.62.36.25.25,0,0,1,.26.17C4.33,9.11,4.49,9.38,4.68,9.72Z"/><path class="cls-1" d="M0,5.55a7.22,7.22,0,0,0,3.77,1V7.58a7.32,7.32,0,0,1-1.92-.24A4.21,4.21,0,0,1,.5,6.71,1.07,1.07,0,0,1,0,5.55Z"/></g></g></svg>