<svg xmlns="http://www.w3.org/2000/svg" viewBox="0 0 20 20"><defs><style>.cls-1{fill:#333;}.cls-2{fill:none;}</style></defs><g id="Layer_2" data-name="Layer 2"><g id="Layer_1-2" data-name="Layer 1"><path class="cls-1" d="M13.25,12.31l1.44,1.49,1.75,1.83c.42.44.47.87.13,1.2s-.77.27-1.21-.18c-1-1-2-2.08-3-3.11l-.2-.24a5.64,5.64,0,0,1-4.9.79,5.43,5.43,0,0,1-3.14-2.35,5.68,5.68,0,1,1,9.12.57ZM4.69,8.65a4.2,4.2,0,1,0,4.19-4.2A4.21,4.21,0,0,0,4.69,8.65Z"/><rect class="cls-2" width="20" height="20"/></g></g></svg>