<svg xmlns="http://www.w3.org/2000/svg" viewBox="0 0 35 35"><defs><style>.cls-1{fill:#fff;}.cls-2{fill:none;}</style></defs><g id="Layer_2" data-name="Layer 2"><g id="Layer_1-2" data-name="Layer 1"><path class="cls-1" d="M30.05,20.41v9.38a3.39,3.39,0,0,1-3.41,3.59c-1.66,0-3.33,0-5,0-.74,0-1.07-.37-1.07-1.15v-7a1.62,1.62,0,0,0-1.84-1.83H16.19a1.57,1.57,0,0,0-1.73,1.74c0,2.33,0,4.66,0,7,0,1-.3,1.29-1.31,1.29-1.5,0-3,0-4.49,0A3.43,3.43,0,0,1,5,29.68V20.41l-.63,0a2.82,2.82,0,0,1-2.55-1.8,2.79,2.79,0,0,1,.47-3A7.67,7.67,0,0,1,2.84,15C7,10.85,11.09,6.77,15.15,2.6a3.28,3.28,0,0,1,4.72,0C24,6.86,28.27,11,32.5,15.24a3,3,0,0,1,.81,3.08,2.72,2.72,0,0,1-2.19,2A6.5,6.5,0,0,1,30.05,20.41Zm-7.6,11.11h3.76c1.43,0,2-.54,2-1.95V20.41c0-1.84.06-1.9,1.93-1.91h.19a1.07,1.07,0,0,0,1.21-.66,1.19,1.19,0,0,0-.4-1.34L18.46,3.86c-.68-.68-1.21-.67-1.91,0L7.43,13,3.81,16.62a1.08,1.08,0,0,0-.27,1.25,1,1,0,0,0,1,.63c.44,0,.88,0,1.31,0a1,1,0,0,1,1,.95c0,.16,0,.33,0,.5V29.8c0,.89.45,1.61,1.2,1.64,1.48.08,3,0,4.53,0v-.7c0-1.93,0-3.87,0-5.8A3.42,3.42,0,0,1,16,21.51q1.59,0,3.18,0a3.4,3.4,0,0,1,3.25,2.76,5.25,5.25,0,0,1,.07,1.05C22.46,27.36,22.45,29.39,22.45,31.52Z"/><rect class="cls-2" width="35" height="35"/></g></g></svg>