<svg xmlns="http://www.w3.org/2000/svg" viewBox="0 0 15.65 17.48"><defs><style>.cls-1{fill:#fff;}</style></defs><g id="Layer_2" data-name="Layer 2"><g id="Layer_1-2" data-name="Layer 1"><path class="cls-1" d="M13,13.29c-.32,0-.55-.33-.55-.78s.23-.79.55-.79.56.32.56.78S13.32,13.29,13,13.29Z" transform="translate(-0.15 -0.15)"/><path class="cls-1" d="M10.55,14.51c-.32,0-.55-.33-.55-.78s.23-.79.55-.79.56.33.56.79S10.87,14.51,10.55,14.51Z" transform="translate(-0.15 -0.15)"/><path class="cls-1" d="M7.94,4.48c-.47,0-.79-.23-.8-.55a.47.47,0,0,1,.14-.33.89.89,0,0,1,.61-.23c.5,0,.83.23.83.55a.47.47,0,0,1-.14.33A.94.94,0,0,1,8,4.48Z" transform="translate(-0.15 -0.15)"/><path class="cls-1" d="M10.73,4.48c-.45,0-.77-.23-.77-.55a.48.48,0,0,1,.14-.34.94.94,0,0,1,.61-.23c.5,0,.83.23.83.55a.47.47,0,0,1-.14.33.88.88,0,0,1-.6.23Z" transform="translate(-0.15 -0.15)"/><path class="cls-1" d="M5.2,4.48c-.45,0-.78-.23-.78-.55a.47.47,0,0,1,.14-.33.86.86,0,0,1,.6-.23c.5,0,.83.23.83.56a.47.47,0,0,1-.14.33,1,1,0,0,1-.57.23Z" transform="translate(-0.15 -0.15)"/><path class="cls-1" d="M7.94,2.7c-.47,0-.8-.24-.8-.55a.47.47,0,0,1,.14-.33.93.93,0,0,1,.6-.23c.5,0,.83.23.83.55a.51.51,0,0,1-.13.33A1,1,0,0,1,8,2.7Z" transform="translate(-0.15 -0.15)"/><path class="cls-1" d="M7.92,6.26c-.45,0-.78-.23-.78-.55a.43.43,0,0,1,.14-.32.89.89,0,0,1,.6-.24c.5,0,.83.23.83.55A.51.51,0,0,1,8.58,6,1,1,0,0,1,8,6.26Z" transform="translate(-0.15 -0.15)"/><path class="cls-1" d="M3,13c-.33,0-.56-.33-.56-.79s.24-.78.56-.78.55.33.55.78S3.27,13,3,13Z" transform="translate(-0.15 -0.15)"/><path class="cls-1" d="M5.4,14.14c-.32,0-.55-.33-.55-.79s.23-.79.55-.79.55.33.55.79S5.72,14.14,5.4,14.14Z" transform="translate(-0.15 -0.15)"/><path class="cls-1" d="M3,8.79c-.33,0-.56-.33-.56-.79s.24-.78.56-.78.55.33.55.78S3.27,8.79,3,8.79Z" transform="translate(-0.15 -0.15)"/><path class="cls-1" d="M5.4,9.91c-.32,0-.55-.33-.55-.79s.23-.79.55-.79.55.33.55.79S5.72,9.91,5.4,9.91Z" transform="translate(-0.15 -0.15)"/><path class="cls-1" d="M13,11c-.32,0-.55-.33-.55-.79s.23-.79.55-.79.56.32.56.79S13.32,11,13,11Z" transform="translate(-0.15 -0.15)"/><path class="cls-1" d="M10.55,12.17c-.32,0-.55-.33-.55-.79s.23-.79.55-.79.56.33.56.79S10.87,12.17,10.55,12.17Z" transform="translate(-0.15 -0.15)"/><path class="cls-1" d="M13,8.6c-.32,0-.55-.33-.55-.78S12.68,7,13,7s.56.32.56.79S13.32,8.6,13,8.6Z" transform="translate(-0.15 -0.15)"/><path class="cls-1" d="M10.55,9.82c-.32,0-.55-.33-.55-.79s.24-.78.55-.78.56.33.56.78S10.87,9.82,10.55,9.82Z" transform="translate(-0.15 -0.15)"/><path class="cls-1" d="M7.88,17.63A1.79,1.79,0,0,1,7,17.44L1.17,14.52a2,2,0,0,1-1-1.65v-8a1.75,1.75,0,0,1,.25-1,1.62,1.62,0,0,1,.76-.66L7,.35a2.54,2.54,0,0,1,1-.2,2.61,2.61,0,0,1,1,.2l5.81,2.91a1.6,1.6,0,0,1,1,1.65v8a2,2,0,0,1-1,1.65L9,17.44a3.27,3.27,0,0,1-1.08.19ZM15,4.62l-.17,0L9,7.59a1.36,1.36,0,0,0-.67,1.06v8.28h.17a.67.67,0,0,0,.19-.05L14.5,14a1.35,1.35,0,0,0,.66-1.06v-8a.36.36,0,0,0-.05-.22l0-.1Zm-14,0c-.12,0-.14.2-.14.29v8A1.37,1.37,0,0,0,1.44,14l5.84,2.91a.45.45,0,0,0,.19.06l.06,0,.1-.08a.57.57,0,0,0,0-.18v-8A1.39,1.39,0,0,0,7,7.59L1.17,4.67a.41.41,0,0,0-.19,0h0ZM8,.79a2,2,0,0,0-.69.12L1.19,4,7.28,7a1.72,1.72,0,0,0,.7.14A1.79,1.79,0,0,0,8.66,7l6.11-3L8.67.92A1.87,1.87,0,0,0,8,.79Z" transform="translate(-0.15 -0.15)"/></g></g></svg>