<svg id="Layer_1" data-name="Layer 1" xmlns="http://www.w3.org/2000/svg" viewBox="0 0 200 200"><defs><style>.cls-1{opacity:0.8;}.cls-2{fill:#374149;}</style></defs><g class="cls-1"><path class="cls-2" d="M13.56,66.27H186.45V162c0,11.19-7.48,18.79-18.75,18.86-14.19.09-28.38,0-42.57,0H30.7c-11.74,0-17.09-5.36-17.12-17.41-.06-26.24,0-52.47,0-78.7ZM97.79,156.6h0c2,0,4,0,6.08,0,3.66-.09,5-1.32,5.06-4.94.1-4,.06-8.11,0-12.16,0-3.15-1.67-4.91-4.85-5q-6.25-.1-12.51,0c-3,.06-4.68,1.61-4.7,4.67,0,4.29,0,8.59,0,12.88,0,2.87,1.63,4.38,4.47,4.49C93.49,156.66,95.64,156.6,97.79,156.6ZM152,145.73h0c0-2.15,0-4.3,0-6.44,0-3.06-1.69-4.67-4.65-4.74-4.29-.11-8.58-.1-12.87,0a4.24,4.24,0,0,0-4.53,4.51c-.12,4.41-.13,8.83,0,13.24a4.07,4.07,0,0,0,4.34,4.27c4.52.08,9.06.07,13.59,0,2.55,0,4-1.5,4.07-4C152.05,150.26,152,148,152,145.73Zm-11.16-37.66c2.15,0,4.29,0,6.44,0,3.28,0,4.78-1.6,4.75-4.84q0-6.08,0-12.15c0-3.22-1.6-4.92-4.74-5-4.17-.1-8.34-.08-12.51,0-3.17.05-4.82,1.78-4.85,5,0,4,0,8.1,0,12.15,0,3.14,1.57,4.89,4.83,4.9Zm-43.07,0v0c2.14,0,4.28,0,6.43,0,3.32,0,4.77-1.71,4.78-4.86q0-6.07,0-12.15c0-3-1.44-4.86-4.45-5-4.4-.15-8.82-.12-13.22,0-2.6.06-4.31,1.49-4.37,4.21q-.15,6.78,0,13.58A3.88,3.88,0,0,0,91,108C93.2,108.12,95.47,108,97.74,108ZM66.28,96.94c0-1.78,0-3.57,0-5.36C66.2,87.48,65,86.15,61,86.06s-7.86,0-11.79,0c-3.17,0-4.87,1.65-4.95,4.84-.05,2.14,0,4.29,0,6.43,0,10.76,0,10.76,10.79,10.76C66.28,108.08,66.28,108.08,66.28,96.94ZM55.45,134.51H49.37c-3.15,0-5,1.52-5.07,4.71-.1,4.29-.12,8.59,0,12.88.09,3,1.83,4.51,4.86,4.51,4,0,8.11,0,12.16,0,3.19,0,4.79-1.83,4.92-4.92.09-2.15,0-4.29,0-6.44C66.28,134.51,66.28,134.51,55.45,134.51Z"/><path class="cls-2" d="M54.55,19.41h86.11c0,5.28,0,10.38,0,15.47,0,2.65,1.12,5,3.7,5.42a8.76,8.76,0,0,0,5.71-1.64c.95-.66,1.23-2.74,1.27-4.2.15-4.87.06-9.75.06-15.3,7.84.56,15.58-1.28,23.05,1.5,7.64,2.84,11.47,8.58,11.49,16.71,0,5.37,0,10.73-.07,16.1a5.06,5.06,0,0,1-.38,1.19H14.09c0-8.11-.68-16.12.2-23.95.83-7.32,6.82-11.43,14.21-11.48,5,0,9.94,0,15.3,0,0,5.26,0,10.12,0,15,0,4.21,2,6.55,5.38,6.52s5.31-2.39,5.35-6.64C54.58,29.31,54.55,24.55,54.55,19.41Z"/></g></svg>